<mxfile host="app.diagrams.net" modified="2023-06-16T09:55:00.950Z" agent="Mozilla/5.0 (Macintosh; Intel Mac OS X 10_15_7) AppleWebKit/605.1.15 (KHTML, like Gecko) Version/16.5 Safari/605.1.15" etag="q8VGhFMSCKnFPtoiIU3i" version="21.4.0" type="device">
  <diagram name="Page-1" id="7l94MnhMW4oxgj-nrph-">
    <mxGraphModel dx="704" dy="521" grid="1" gridSize="10" guides="1" tooltips="1" connect="1" arrows="1" fold="1" page="1" pageScale="1" pageWidth="827" pageHeight="1169" math="0" shadow="0">
      <root>
        <mxCell id="0" />
        <mxCell id="1" parent="0" />
        <mxCell id="tzxj0fkptjLQeunRrmRs-34" value="" style="rounded=1;whiteSpace=wrap;html=1;dashed=1;" vertex="1" parent="1">
          <mxGeometry x="540" y="500" width="120" height="60" as="geometry" />
        </mxCell>
        <mxCell id="tzxj0fkptjLQeunRrmRs-29" value="" style="rounded=1;whiteSpace=wrap;html=1;dashed=1;" vertex="1" parent="1">
          <mxGeometry x="540" y="219" width="120" height="60" as="geometry" />
        </mxCell>
        <mxCell id="tzxj0fkptjLQeunRrmRs-28" value="" style="rounded=1;whiteSpace=wrap;html=1;dashed=1;" vertex="1" parent="1">
          <mxGeometry x="294" y="318" width="120" height="60" as="geometry" />
        </mxCell>
        <mxCell id="tzxj0fkptjLQeunRrmRs-27" value="" style="rounded=1;whiteSpace=wrap;html=1;dashed=1;" vertex="1" parent="1">
          <mxGeometry x="280" y="219" width="120" height="60" as="geometry" />
        </mxCell>
        <mxCell id="tzxj0fkptjLQeunRrmRs-25" value="" style="rounded=1;whiteSpace=wrap;html=1;dashed=1;" vertex="1" parent="1">
          <mxGeometry x="112" y="119" width="120" height="60" as="geometry" />
        </mxCell>
        <mxCell id="tzxj0fkptjLQeunRrmRs-1" value="" style="endArrow=none;dashed=1;html=1;dashPattern=1 3;strokeWidth=4;rounded=0;" edge="1" parent="1">
          <mxGeometry width="50" height="50" relative="1" as="geometry">
            <mxPoint x="240" y="389" as="sourcePoint" />
            <mxPoint x="240" y="99" as="targetPoint" />
          </mxGeometry>
        </mxCell>
        <mxCell id="tzxj0fkptjLQeunRrmRs-14" style="edgeStyle=orthogonalEdgeStyle;rounded=0;orthogonalLoop=1;jettySize=auto;html=1;exitX=0.25;exitY=1;exitDx=0;exitDy=0;entryX=0.5;entryY=0;entryDx=0;entryDy=0;" edge="1" parent="1" source="tzxj0fkptjLQeunRrmRs-2" target="tzxj0fkptjLQeunRrmRs-3">
          <mxGeometry relative="1" as="geometry" />
        </mxCell>
        <mxCell id="tzxj0fkptjLQeunRrmRs-2" value="Router" style="rounded=1;whiteSpace=wrap;html=1;" vertex="1" parent="1">
          <mxGeometry x="100" y="119" width="120" height="60" as="geometry" />
        </mxCell>
        <mxCell id="tzxj0fkptjLQeunRrmRs-3" value="View" style="rounded=1;whiteSpace=wrap;html=1;" vertex="1" parent="1">
          <mxGeometry x="50" y="219" width="130" height="60" as="geometry" />
        </mxCell>
        <mxCell id="tzxj0fkptjLQeunRrmRs-9" style="edgeStyle=orthogonalEdgeStyle;rounded=0;orthogonalLoop=1;jettySize=auto;html=1;exitX=0;exitY=0.5;exitDx=0;exitDy=0;entryX=0.5;entryY=1;entryDx=0;entryDy=0;fillColor=#d80073;strokeColor=#A50040;" edge="1" parent="1" source="tzxj0fkptjLQeunRrmRs-4" target="tzxj0fkptjLQeunRrmRs-3">
          <mxGeometry relative="1" as="geometry" />
        </mxCell>
        <mxCell id="tzxj0fkptjLQeunRrmRs-4" value="Presenter" style="rounded=1;whiteSpace=wrap;html=1;" vertex="1" parent="1">
          <mxGeometry x="294" y="329" width="120" height="60" as="geometry" />
        </mxCell>
        <mxCell id="tzxj0fkptjLQeunRrmRs-7" style="edgeStyle=orthogonalEdgeStyle;rounded=0;orthogonalLoop=1;jettySize=auto;html=1;exitX=0.75;exitY=1;exitDx=0;exitDy=0;entryX=0.75;entryY=0;entryDx=0;entryDy=0;" edge="1" parent="1" source="tzxj0fkptjLQeunRrmRs-5" target="tzxj0fkptjLQeunRrmRs-4">
          <mxGeometry relative="1" as="geometry" />
        </mxCell>
        <mxCell id="tzxj0fkptjLQeunRrmRs-10" style="edgeStyle=orthogonalEdgeStyle;rounded=0;orthogonalLoop=1;jettySize=auto;html=1;exitX=0.5;exitY=0;exitDx=0;exitDy=0;entryX=1;entryY=0.5;entryDx=0;entryDy=0;" edge="1" parent="1" source="tzxj0fkptjLQeunRrmRs-5" target="tzxj0fkptjLQeunRrmRs-2">
          <mxGeometry relative="1" as="geometry" />
        </mxCell>
        <mxCell id="tzxj0fkptjLQeunRrmRs-12" style="edgeStyle=orthogonalEdgeStyle;rounded=0;orthogonalLoop=1;jettySize=auto;html=1;exitX=1;exitY=0.25;exitDx=0;exitDy=0;entryX=0;entryY=0.25;entryDx=0;entryDy=0;" edge="1" parent="1" source="tzxj0fkptjLQeunRrmRs-5" target="tzxj0fkptjLQeunRrmRs-11">
          <mxGeometry relative="1" as="geometry" />
        </mxCell>
        <mxCell id="tzxj0fkptjLQeunRrmRs-5" value="Interactor" style="rounded=1;whiteSpace=wrap;html=1;" vertex="1" parent="1">
          <mxGeometry x="294" y="219" width="120" height="60" as="geometry" />
        </mxCell>
        <mxCell id="tzxj0fkptjLQeunRrmRs-6" value="" style="endArrow=classic;html=1;rounded=0;exitX=1;exitY=0.25;exitDx=0;exitDy=0;entryX=0;entryY=0.25;entryDx=0;entryDy=0;" edge="1" parent="1" source="tzxj0fkptjLQeunRrmRs-3" target="tzxj0fkptjLQeunRrmRs-5">
          <mxGeometry width="50" height="50" relative="1" as="geometry">
            <mxPoint x="390" y="359" as="sourcePoint" />
            <mxPoint x="440" y="309" as="targetPoint" />
          </mxGeometry>
        </mxCell>
        <mxCell id="tzxj0fkptjLQeunRrmRs-13" style="edgeStyle=orthogonalEdgeStyle;rounded=0;orthogonalLoop=1;jettySize=auto;html=1;exitX=0;exitY=0.75;exitDx=0;exitDy=0;entryX=1;entryY=0.75;entryDx=0;entryDy=0;fillColor=#d80073;strokeColor=#A50040;" edge="1" parent="1" source="tzxj0fkptjLQeunRrmRs-11" target="tzxj0fkptjLQeunRrmRs-5">
          <mxGeometry relative="1" as="geometry" />
        </mxCell>
        <mxCell id="tzxj0fkptjLQeunRrmRs-11" value="Worker" style="rounded=1;whiteSpace=wrap;html=1;" vertex="1" parent="1">
          <mxGeometry x="560" y="219" width="120" height="60" as="geometry" />
        </mxCell>
        <mxCell id="tzxj0fkptjLQeunRrmRs-15" value="" style="endArrow=none;dashed=1;html=1;dashPattern=1 3;strokeWidth=4;rounded=0;" edge="1" parent="1">
          <mxGeometry width="50" height="50" relative="1" as="geometry">
            <mxPoint x="466" y="389" as="sourcePoint" />
            <mxPoint x="466" y="99" as="targetPoint" />
          </mxGeometry>
        </mxCell>
        <mxCell id="tzxj0fkptjLQeunRrmRs-16" value="No UIKit, No SwiftUI" style="text;html=1;align=center;verticalAlign=middle;resizable=0;points=[];autosize=1;strokeColor=none;fillColor=none;" vertex="1" parent="1">
          <mxGeometry x="280" y="49" width="130" height="30" as="geometry" />
        </mxCell>
        <mxCell id="tzxj0fkptjLQeunRrmRs-17" value="ViewState" style="text;html=1;align=center;verticalAlign=middle;resizable=0;points=[];autosize=1;strokeColor=none;fillColor=none;fontColor=#CC0066;" vertex="1" parent="1">
          <mxGeometry x="200" y="357" width="80" height="30" as="geometry" />
        </mxCell>
        <mxCell id="tzxj0fkptjLQeunRrmRs-18" value="RawModel" style="text;html=1;align=center;verticalAlign=middle;resizable=0;points=[];autosize=1;strokeColor=none;fillColor=none;fontColor=#CC0066;" vertex="1" parent="1">
          <mxGeometry x="425" y="259" width="80" height="30" as="geometry" />
        </mxCell>
        <mxCell id="tzxj0fkptjLQeunRrmRs-20" value="&lt;b&gt;View&lt;/b&gt; :&amp;nbsp;&lt;br&gt;&lt;div style=&quot;&quot;&gt;- Forwards UI event to Intereactor&lt;/div&gt;&lt;div style=&quot;&quot;&gt;- Listens to ViewState (Combine) update from Presenter&lt;/div&gt;" style="text;html=1;align=left;verticalAlign=middle;resizable=0;points=[];autosize=1;strokeColor=none;fillColor=none;" vertex="1" parent="1">
          <mxGeometry x="40" y="419" width="330" height="60" as="geometry" />
        </mxCell>
        <mxCell id="tzxj0fkptjLQeunRrmRs-21" value="&lt;b&gt;Interactor&lt;/b&gt; :&amp;nbsp;&lt;br&gt;&lt;div style=&quot;&quot;&gt;- Decides consequences of UI event (loading, routing, errors, ...)&lt;/div&gt;&lt;div style=&quot;&quot;&gt;- Listens to Workers&lt;/div&gt;&lt;div style=&quot;&quot;&gt;- triggers Presenter when needed &amp;nbsp;&lt;/div&gt;" style="text;html=1;align=left;verticalAlign=middle;resizable=0;points=[];autosize=1;strokeColor=none;fillColor=none;" vertex="1" parent="1">
          <mxGeometry x="40" y="474" width="370" height="70" as="geometry" />
        </mxCell>
        <mxCell id="tzxj0fkptjLQeunRrmRs-22" value="No Core" style="text;html=1;align=center;verticalAlign=middle;resizable=0;points=[];autosize=1;strokeColor=none;fillColor=none;" vertex="1" parent="1">
          <mxGeometry x="310" y="67" width="70" height="30" as="geometry" />
        </mxCell>
        <mxCell id="tzxj0fkptjLQeunRrmRs-23" value="&lt;b&gt;Presenter&lt;/b&gt; :&amp;nbsp;&lt;br&gt;&lt;div style=&quot;&quot;&gt;- Transforms RawModel(s) datas into viewStates&amp;nbsp;&lt;/div&gt;" style="text;html=1;align=left;verticalAlign=middle;resizable=0;points=[];autosize=1;strokeColor=none;fillColor=none;" vertex="1" parent="1">
          <mxGeometry x="40" y="544" width="290" height="40" as="geometry" />
        </mxCell>
        <mxCell id="tzxj0fkptjLQeunRrmRs-24" value="&lt;b&gt;Router&lt;/b&gt; :&amp;nbsp;&lt;br&gt;&lt;div style=&quot;&quot;&gt;- Transforms Interactor Routing requests into UI&amp;nbsp;&lt;/div&gt;" style="text;html=1;align=left;verticalAlign=middle;resizable=0;points=[];autosize=1;strokeColor=none;fillColor=none;" vertex="1" parent="1">
          <mxGeometry x="40" y="585" width="280" height="40" as="geometry" />
        </mxCell>
        <mxCell id="tzxj0fkptjLQeunRrmRs-30" value="&lt;b&gt;Worker&lt;/b&gt; :&amp;nbsp;&lt;br&gt;&lt;div style=&quot;&quot;&gt;- Any Service to the Interactor&lt;/div&gt;" style="text;html=1;align=left;verticalAlign=middle;resizable=0;points=[];autosize=1;strokeColor=none;fillColor=none;" vertex="1" parent="1">
          <mxGeometry x="40" y="625" width="180" height="40" as="geometry" />
        </mxCell>
        <mxCell id="tzxj0fkptjLQeunRrmRs-31" style="edgeStyle=orthogonalEdgeStyle;rounded=0;orthogonalLoop=1;jettySize=auto;html=1;exitX=0;exitY=0.75;exitDx=0;exitDy=0;entryX=1;entryY=0.75;entryDx=0;entryDy=0;fillColor=#d80073;strokeColor=#A50040;" edge="1" parent="1">
          <mxGeometry relative="1" as="geometry">
            <mxPoint x="673" y="449" as="sourcePoint" />
            <mxPoint x="527" y="449" as="targetPoint" />
          </mxGeometry>
        </mxCell>
        <mxCell id="tzxj0fkptjLQeunRrmRs-32" value="Combine flow" style="text;html=1;align=center;verticalAlign=middle;resizable=0;points=[];autosize=1;strokeColor=none;fillColor=none;fontColor=#CC0066;" vertex="1" parent="1">
          <mxGeometry x="540" y="444" width="100" height="30" as="geometry" />
        </mxCell>
        <mxCell id="tzxj0fkptjLQeunRrmRs-33" value="Concrete Object hidden behind a protocol" style="rounded=1;whiteSpace=wrap;html=1;" vertex="1" parent="1">
          <mxGeometry x="560" y="500" width="120" height="60" as="geometry" />
        </mxCell>
      </root>
    </mxGraphModel>
  </diagram>
</mxfile>
